# xmcd
#
# Track frame offsets:
#	150
#	4219
#	15145
#	29720
#	44358
#	63228
#	75441
#	94401
#	104403
#	125300
#	140034
#	155533
#	171887
#	183922
#
# Disc length: 2735 seconds
#
# Revision: 0
# Processed by: cddbd v1.5.2PL0 Copyright (c) Steve Scherf et al.
# Submitted via: dBpowerAMP V4.0
#
DISCID=b00aad0e
DTITLE=Wendell Ferguson - Wendell Ferguson Live - The $#!T Hite the Fans
DYEAR=1900
DGENRE=Country
TTITLE0=Introduction by Holmes Hook
TTITLE1=Chinatown, My Chinatown
TTITLE2=The Way I Drive
TTITLE3=P-I-G
TTITLE4=The Brnyard Two-Step
TTITLE5=Cascade
TTITLE6=Here's Me, Here's God
TTITLE7=Don't Call Your Girlfriend 'Honey'
TTITLE8=Great Big Johnson
TTITLE9=Capo
TTITLE10=Spice
TTITLE11=Don't Close the Door
TTITLE12=Fret No More
TTITLE13=Didn't Chew
EXTD=
EXTT0=
EXTT1=
EXTT2=
EXTT3=
EXTT4=
EXTT5=
EXTT6=
EXTT7=
EXTT8=
EXTT9=
EXTT10=
EXTT11=
EXTT12=
EXTT13=
PLAYORDER=
